<mxfile host="app.diagrams.net" agent="Mozilla/5.0 (Windows NT 10.0; Win64; x64) AppleWebKit/537.36 (KHTML, like Gecko) Chrome/129.0.0.0 Safari/537.36" version="24.7.16">
  <diagram name="PÃ¡gina-1" id="1Qvx5tnbzK41__mRh2u-">
    <mxGraphModel dx="2947" dy="1316" grid="0" gridSize="10" guides="1" tooltips="1" connect="1" arrows="1" fold="1" page="1" pageScale="1" pageWidth="827" pageHeight="1169" background="#000000" math="0" shadow="0">
      <root>
        <mxCell id="0" />
        <mxCell id="1" parent="0" />
        <mxCell id="-aWM0u22Zyi-v87HrzXc-1" value="&amp;lt;&amp;lt;abstract&amp;gt;&amp;gt;&lt;div&gt;Vehicle&lt;/div&gt;" style="swimlane;fontStyle=1;align=center;verticalAlign=top;childLayout=stackLayout;horizontal=1;startSize=40;horizontalStack=0;resizeParent=1;resizeParentMax=0;resizeLast=0;collapsible=1;marginBottom=0;whiteSpace=wrap;html=1;rounded=0;labelBackgroundColor=none;fillColor=#182E3E;strokeColor=#FFFFFF;fontColor=#FFFFFF;fontFamily=Verdana;" parent="1" vertex="1">
          <mxGeometry x="870" y="36" width="210" height="204" as="geometry" />
        </mxCell>
        <mxCell id="-aWM0u22Zyi-v87HrzXc-2" value="&lt;div&gt;- speed: float&lt;/div&gt;&lt;div&gt;- typeOfVehicle: string&lt;/div&gt;" style="text;strokeColor=none;fillColor=none;align=left;verticalAlign=top;spacingLeft=4;spacingRight=4;overflow=hidden;rotatable=0;points=[[0,0.5],[1,0.5]];portConstraint=eastwest;whiteSpace=wrap;html=1;rounded=0;labelBackgroundColor=none;fontColor=#FFFFFF;fontFamily=Verdana;" parent="-aWM0u22Zyi-v87HrzXc-1" vertex="1">
          <mxGeometry y="40" width="210" height="54" as="geometry" />
        </mxCell>
        <mxCell id="-aWM0u22Zyi-v87HrzXc-3" value="" style="line;strokeWidth=1;fillColor=none;align=left;verticalAlign=middle;spacingTop=-1;spacingLeft=3;spacingRight=3;rotatable=0;labelPosition=right;points=[];portConstraint=eastwest;strokeColor=#FFFFFF;rounded=0;labelBackgroundColor=none;fontColor=#FFFFFF;fontFamily=Verdana;" parent="-aWM0u22Zyi-v87HrzXc-1" vertex="1">
          <mxGeometry y="94" width="210" height="8" as="geometry" />
        </mxCell>
        <mxCell id="-aWM0u22Zyi-v87HrzXc-4" value="+ ToString(): string&lt;div&gt;+ GetTypeOfVehicle(): string&lt;/div&gt;&lt;div&gt;+ GetPlate(): string&lt;/div&gt;&lt;div&gt;+ GetSpeed(): float&lt;/div&gt;&lt;div&gt;+ SetSpeed(): void&lt;/div&gt;&lt;div&gt;+ WriteMessage(string): string&lt;/div&gt;" style="text;strokeColor=none;fillColor=none;align=left;verticalAlign=top;spacingLeft=4;spacingRight=4;overflow=hidden;rotatable=0;points=[[0,0.5],[1,0.5]];portConstraint=eastwest;whiteSpace=wrap;html=1;rounded=0;labelBackgroundColor=none;fontColor=#FFFFFF;fontFamily=Verdana;" parent="-aWM0u22Zyi-v87HrzXc-1" vertex="1">
          <mxGeometry y="102" width="210" height="102" as="geometry" />
        </mxCell>
        <mxCell id="-aWM0u22Zyi-v87HrzXc-5" value="PoliceCar" style="swimlane;fontStyle=1;align=center;verticalAlign=top;childLayout=stackLayout;horizontal=1;startSize=26;horizontalStack=0;resizeParent=1;resizeParentMax=0;resizeLast=0;collapsible=1;marginBottom=0;whiteSpace=wrap;html=1;rounded=0;labelBackgroundColor=none;fillColor=#182E3E;strokeColor=#FFFFFF;fontColor=#FFFFFF;fontFamily=Verdana;" parent="1" vertex="1">
          <mxGeometry x="551" y="530" width="255" height="260" as="geometry" />
        </mxCell>
        <mxCell id="-aWM0u22Zyi-v87HrzXc-6" value="&lt;div&gt;- isPatrolling: bool&lt;/div&gt;&lt;div&gt;- speedRadar: SpeedRadar&lt;/div&gt;&lt;div&gt;- isChasing: bool&lt;/div&gt;&lt;div&gt;- policeStation: Police Station&lt;/div&gt;" style="text;strokeColor=none;fillColor=none;align=left;verticalAlign=top;spacingLeft=4;spacingRight=4;overflow=hidden;rotatable=0;points=[[0,0.5],[1,0.5]];portConstraint=eastwest;whiteSpace=wrap;html=1;rounded=0;labelBackgroundColor=none;fontColor=#FFFFFF;fontFamily=Verdana;" parent="-aWM0u22Zyi-v87HrzXc-5" vertex="1">
          <mxGeometry y="26" width="255" height="64" as="geometry" />
        </mxCell>
        <mxCell id="-aWM0u22Zyi-v87HrzXc-7" value="" style="line;strokeWidth=1;fillColor=none;align=left;verticalAlign=middle;spacingTop=-1;spacingLeft=3;spacingRight=3;rotatable=0;labelPosition=right;points=[];portConstraint=eastwest;strokeColor=#FFFFFF;rounded=0;labelBackgroundColor=none;fontColor=#FFFFFF;fontFamily=Verdana;" parent="-aWM0u22Zyi-v87HrzXc-5" vertex="1">
          <mxGeometry y="90" width="255" height="8" as="geometry" />
        </mxCell>
        <mxCell id="-aWM0u22Zyi-v87HrzXc-8" value="+ UseRadar(WithPlateVehicle): void&lt;div&gt;+ IsPatrolling(): bool&lt;/div&gt;&lt;div&gt;+ StartPatroling(): void&lt;/div&gt;&lt;div&gt;+ EndPatrolling(): void&lt;/div&gt;&lt;div&gt;+ PrintRadarHistory(): void&lt;/div&gt;&lt;div&gt;+ IsChasing(): bool&lt;/div&gt;&lt;div&gt;+ StartChasing(string): void&lt;/div&gt;&lt;div&gt;+ EndChasing(): void&lt;/div&gt;&lt;div&gt;+ SendAlarm(string): void&lt;/div&gt;&lt;div&gt;+ SetPoliceStation(Police Station): void&lt;/div&gt;" style="text;strokeColor=none;fillColor=none;align=left;verticalAlign=top;spacingLeft=4;spacingRight=4;overflow=hidden;rotatable=0;points=[[0,0.5],[1,0.5]];portConstraint=eastwest;whiteSpace=wrap;html=1;rounded=0;labelBackgroundColor=none;fontColor=#FFFFFF;fontFamily=Verdana;" parent="-aWM0u22Zyi-v87HrzXc-5" vertex="1">
          <mxGeometry y="98" width="255" height="162" as="geometry" />
        </mxCell>
        <mxCell id="-aWM0u22Zyi-v87HrzXc-9" value="Taxi" style="swimlane;fontStyle=1;align=center;verticalAlign=top;childLayout=stackLayout;horizontal=1;startSize=26;horizontalStack=0;resizeParent=1;resizeParentMax=0;resizeLast=0;collapsible=1;marginBottom=0;whiteSpace=wrap;html=1;rounded=0;labelBackgroundColor=none;fillColor=#182E3E;strokeColor=#FFFFFF;fontColor=#FFFFFF;fontFamily=Verdana;" parent="1" vertex="1">
          <mxGeometry x="830" y="530" width="201" height="170" as="geometry" />
        </mxCell>
        <mxCell id="-aWM0u22Zyi-v87HrzXc-10" value="&lt;div&gt;- IsCarryingPassengers: bool&lt;/div&gt;&lt;div&gt;- HasLicense: bool&lt;/div&gt;" style="text;strokeColor=none;fillColor=none;align=left;verticalAlign=top;spacingLeft=4;spacingRight=4;overflow=hidden;rotatable=0;points=[[0,0.5],[1,0.5]];portConstraint=eastwest;whiteSpace=wrap;html=1;rounded=0;labelBackgroundColor=none;fontColor=#FFFFFF;fontFamily=Verdana;" parent="-aWM0u22Zyi-v87HrzXc-9" vertex="1">
          <mxGeometry y="26" width="201" height="54" as="geometry" />
        </mxCell>
        <mxCell id="-aWM0u22Zyi-v87HrzXc-11" value="" style="line;strokeWidth=1;fillColor=none;align=left;verticalAlign=middle;spacingTop=-1;spacingLeft=3;spacingRight=3;rotatable=0;labelPosition=right;points=[];portConstraint=eastwest;strokeColor=#FFFFFF;rounded=0;labelBackgroundColor=none;fontColor=#FFFFFF;fontFamily=Verdana;" parent="-aWM0u22Zyi-v87HrzXc-9" vertex="1">
          <mxGeometry y="80" width="201" height="8" as="geometry" />
        </mxCell>
        <mxCell id="-aWM0u22Zyi-v87HrzXc-12" value="+ StartRide(): void&lt;div&gt;+ StopRide(): void&lt;/div&gt;&lt;div&gt;+ SetLicense(): void&lt;/div&gt;&lt;div&gt;+ RemoveLicense(): void&lt;/div&gt;&lt;div&gt;+ GetHasLicense(): bool&lt;/div&gt;&lt;div&gt;&lt;br&gt;&lt;/div&gt;" style="text;strokeColor=none;fillColor=none;align=left;verticalAlign=top;spacingLeft=4;spacingRight=4;overflow=hidden;rotatable=0;points=[[0,0.5],[1,0.5]];portConstraint=eastwest;whiteSpace=wrap;html=1;rounded=0;labelBackgroundColor=none;fontColor=#FFFFFF;fontFamily=Verdana;" parent="-aWM0u22Zyi-v87HrzXc-9" vertex="1">
          <mxGeometry y="88" width="201" height="82" as="geometry" />
        </mxCell>
        <mxCell id="-aWM0u22Zyi-v87HrzXc-13" value="SpeedRadar" style="swimlane;fontStyle=1;align=center;verticalAlign=top;childLayout=stackLayout;horizontal=1;startSize=26;horizontalStack=0;resizeParent=1;resizeParentMax=0;resizeLast=0;collapsible=1;marginBottom=0;whiteSpace=wrap;html=1;rounded=0;labelBackgroundColor=none;fillColor=#182E3E;strokeColor=#FFFFFF;fontColor=#FFFFFF;fontFamily=Verdana;" parent="1" vertex="1">
          <mxGeometry x="200" y="565" width="220" height="197" as="geometry" />
        </mxCell>
        <mxCell id="-aWM0u22Zyi-v87HrzXc-14" value="- plate: string&lt;div&gt;- speed: float&lt;/div&gt;&lt;div&gt;- legalSpeed: const float&lt;/div&gt;&lt;div&gt;+ SpeedHistory: List&amp;lt;float&amp;gt;&lt;/div&gt;" style="text;strokeColor=none;fillColor=none;align=left;verticalAlign=top;spacingLeft=4;spacingRight=4;overflow=hidden;rotatable=0;points=[[0,0.5],[1,0.5]];portConstraint=eastwest;whiteSpace=wrap;html=1;rounded=0;labelBackgroundColor=none;fontColor=#FFFFFF;fontFamily=Verdana;" parent="-aWM0u22Zyi-v87HrzXc-13" vertex="1">
          <mxGeometry y="26" width="220" height="64" as="geometry" />
        </mxCell>
        <mxCell id="-aWM0u22Zyi-v87HrzXc-15" value="" style="line;strokeWidth=1;fillColor=none;align=left;verticalAlign=middle;spacingTop=-1;spacingLeft=3;spacingRight=3;rotatable=0;labelPosition=right;points=[];portConstraint=eastwest;strokeColor=#FFFFFF;rounded=0;labelBackgroundColor=none;fontColor=#FFFFFF;fontFamily=Verdana;" parent="-aWM0u22Zyi-v87HrzXc-13" vertex="1">
          <mxGeometry y="90" width="220" height="8" as="geometry" />
        </mxCell>
        <mxCell id="-aWM0u22Zyi-v87HrzXc-16" value="+ TriggerRadar(Vehicle): void&lt;div&gt;+ SpeedHistory(): List&amp;lt;float&amp;gt;&lt;/div&gt;&lt;div&gt;+ SpeedHistory(List&amp;lt;float&amp;gt;): void&lt;/div&gt;&lt;div&gt;+ GetLastReading(): string&lt;/div&gt;&lt;div&gt;+ WriteMessage(string): string&lt;/div&gt;" style="text;strokeColor=none;fillColor=none;align=left;verticalAlign=top;spacingLeft=4;spacingRight=4;overflow=hidden;rotatable=0;points=[[0,0.5],[1,0.5]];portConstraint=eastwest;whiteSpace=wrap;html=1;rounded=0;labelBackgroundColor=none;fontColor=#FFFFFF;fontFamily=Verdana;" parent="-aWM0u22Zyi-v87HrzXc-13" vertex="1">
          <mxGeometry y="98" width="220" height="99" as="geometry" />
        </mxCell>
        <mxCell id="-aWM0u22Zyi-v87HrzXc-19" value="PoliceStation" style="swimlane;fontStyle=1;align=center;verticalAlign=top;childLayout=stackLayout;horizontal=1;startSize=26;horizontalStack=0;resizeParent=1;resizeParentMax=0;resizeLast=0;collapsible=1;marginBottom=0;whiteSpace=wrap;html=1;rounded=0;labelBackgroundColor=none;fillColor=#182E3E;strokeColor=#FFFFFF;fontColor=#FFFFFF;fontFamily=Verdana;" parent="1" vertex="1">
          <mxGeometry x="800" y="855" width="280" height="230" as="geometry" />
        </mxCell>
        <mxCell id="-aWM0u22Zyi-v87HrzXc-20" value="- PoliceCarRegister: List&amp;lt;string&amp;gt;&lt;div&gt;- alarmPlate: string&lt;/div&gt;&lt;div&gt;- StationID: string&lt;/div&gt;&lt;div&gt;- City: City&lt;br&gt;&lt;div&gt;&lt;br&gt;&lt;/div&gt;&lt;/div&gt;" style="text;strokeColor=none;fillColor=none;align=left;verticalAlign=top;spacingLeft=4;spacingRight=4;overflow=hidden;rotatable=0;points=[[0,0.5],[1,0.5]];portConstraint=eastwest;whiteSpace=wrap;html=1;rounded=0;labelBackgroundColor=none;fontColor=#FFFFFF;fontFamily=Verdana;" parent="-aWM0u22Zyi-v87HrzXc-19" vertex="1">
          <mxGeometry y="26" width="280" height="71" as="geometry" />
        </mxCell>
        <mxCell id="-aWM0u22Zyi-v87HrzXc-21" value="" style="line;strokeWidth=1;fillColor=none;align=left;verticalAlign=middle;spacingTop=-1;spacingLeft=3;spacingRight=3;rotatable=0;labelPosition=right;points=[];portConstraint=eastwest;strokeColor=#FFFFFF;rounded=0;labelBackgroundColor=none;fontColor=#FFFFFF;fontFamily=Verdana;" parent="-aWM0u22Zyi-v87HrzXc-19" vertex="1">
          <mxGeometry y="97" width="280" height="8" as="geometry" />
        </mxCell>
        <mxCell id="-aWM0u22Zyi-v87HrzXc-22" value="+ ShareAlarm(string): void&lt;br&gt;+ AddPoliceCar(PoliceCar): void&lt;div&gt;+ RemovePoliceCar(PoliceCar): void&lt;/div&gt;&lt;div&gt;+ PoliceCarRegister():List&amp;lt;PoliceCar&amp;gt;&lt;/div&gt;&lt;div&gt;+ PoliceCarRegister(List&amp;lt;PoliceCar&amp;gt;): void&amp;nbsp;&lt;/div&gt;&lt;div&gt;+ WriteMessage(string): string&lt;br&gt;&lt;/div&gt;&lt;div&gt;+ ToString(): string&lt;/div&gt;&lt;div&gt;&lt;br&gt;&lt;/div&gt;&lt;div&gt;&amp;nbsp;&lt;/div&gt;" style="text;strokeColor=none;fillColor=none;align=left;verticalAlign=top;spacingLeft=4;spacingRight=4;overflow=hidden;rotatable=0;points=[[0,0.5],[1,0.5]];portConstraint=eastwest;whiteSpace=wrap;html=1;rounded=0;labelBackgroundColor=none;fontColor=#FFFFFF;fontFamily=Verdana;" parent="-aWM0u22Zyi-v87HrzXc-19" vertex="1">
          <mxGeometry y="105" width="280" height="125" as="geometry" />
        </mxCell>
        <mxCell id="-aWM0u22Zyi-v87HrzXc-23" value="City" style="swimlane;fontStyle=1;align=center;verticalAlign=top;childLayout=stackLayout;horizontal=1;startSize=26;horizontalStack=0;resizeParent=1;resizeParentMax=0;resizeLast=0;collapsible=1;marginBottom=0;whiteSpace=wrap;html=1;rounded=0;labelBackgroundColor=none;fillColor=#182E3E;strokeColor=#FFFFFF;fontColor=#FFFFFF;fontFamily=Verdana;" parent="1" vertex="1">
          <mxGeometry x="1360" y="489" width="260" height="191" as="geometry" />
        </mxCell>
        <mxCell id="-aWM0u22Zyi-v87HrzXc-24" value="- policeStation: PoliceStation&lt;div&gt;- TaxiRegister: List&amp;lt;Taxi&amp;gt;&lt;/div&gt;&lt;div&gt;- CityName: string&lt;/div&gt;" style="text;strokeColor=none;fillColor=none;align=left;verticalAlign=top;spacingLeft=4;spacingRight=4;overflow=hidden;rotatable=0;points=[[0,0.5],[1,0.5]];portConstraint=eastwest;whiteSpace=wrap;html=1;rounded=0;labelBackgroundColor=none;fontColor=#FFFFFF;fontFamily=Verdana;" parent="-aWM0u22Zyi-v87HrzXc-23" vertex="1">
          <mxGeometry y="26" width="260" height="57" as="geometry" />
        </mxCell>
        <mxCell id="-aWM0u22Zyi-v87HrzXc-25" value="" style="line;strokeWidth=1;fillColor=none;align=left;verticalAlign=middle;spacingTop=-1;spacingLeft=3;spacingRight=3;rotatable=0;labelPosition=right;points=[];portConstraint=eastwest;strokeColor=#FFFFFF;rounded=0;labelBackgroundColor=none;fontColor=#FFFFFF;fontFamily=Verdana;" parent="-aWM0u22Zyi-v87HrzXc-23" vertex="1">
          <mxGeometry y="83" width="260" height="8" as="geometry" />
        </mxCell>
        <mxCell id="-aWM0u22Zyi-v87HrzXc-26" value="+ GrantTaxiLicense(Taxi): void&lt;div&gt;+ RemoveTaxiLicense(Taxi): void&lt;/div&gt;&lt;div&gt;+ TaxiRegister():List&amp;lt;Taxi&amp;gt;&lt;/div&gt;&lt;div&gt;+ TaxiRegister(List&amp;lt;Taxi&amp;gt;): void&amp;nbsp;&lt;/div&gt;&lt;div&gt;+ WriteMessage(string): string&lt;br&gt;&lt;/div&gt;&lt;div&gt;+ ToString(): string&lt;/div&gt;&lt;div&gt;&lt;br&gt;&lt;/div&gt;" style="text;strokeColor=none;fillColor=none;align=left;verticalAlign=top;spacingLeft=4;spacingRight=4;overflow=hidden;rotatable=0;points=[[0,0.5],[1,0.5]];portConstraint=eastwest;whiteSpace=wrap;html=1;rounded=0;labelBackgroundColor=none;fontColor=#FFFFFF;fontFamily=Verdana;" parent="-aWM0u22Zyi-v87HrzXc-23" vertex="1">
          <mxGeometry y="91" width="260" height="100" as="geometry" />
        </mxCell>
        <mxCell id="-aWM0u22Zyi-v87HrzXc-28" value="" style="shape=table;startSize=0;container=1;collapsible=0;childLayout=tableLayout;rounded=0;labelBackgroundColor=none;fillColor=#182E3E;strokeColor=#FFFFFF;fontColor=#FFFFFF;fontFamily=Verdana;" parent="1" vertex="1">
          <mxGeometry x="414" y="63" width="180" height="100" as="geometry" />
        </mxCell>
        <mxCell id="-aWM0u22Zyi-v87HrzXc-29" value="" style="shape=tableRow;horizontal=0;startSize=0;swimlaneHead=0;swimlaneBody=0;strokeColor=#FFFFFF;top=0;left=0;bottom=0;right=0;collapsible=0;dropTarget=0;fillColor=none;points=[[0,0.5],[1,0.5]];portConstraint=eastwest;rounded=0;labelBackgroundColor=none;fontColor=#FFFFFF;fontFamily=Verdana;" parent="-aWM0u22Zyi-v87HrzXc-28" vertex="1">
          <mxGeometry width="180" height="40" as="geometry" />
        </mxCell>
        <mxCell id="-aWM0u22Zyi-v87HrzXc-30" value="&lt;i&gt;&amp;lt;&amp;lt;Interface&amp;gt;&amp;gt;&lt;/i&gt;&lt;br&gt;&lt;b&gt;IMessageWritter&lt;/b&gt;&lt;div&gt;&lt;b&gt;&lt;br&gt;&lt;/b&gt;&lt;/div&gt;" style="shape=partialRectangle;html=1;whiteSpace=wrap;connectable=0;strokeColor=#FFFFFF;overflow=hidden;fillColor=none;top=0;left=0;bottom=0;right=0;pointerEvents=1;rounded=0;labelBackgroundColor=none;fontColor=#FFFFFF;fontFamily=Verdana;" parent="-aWM0u22Zyi-v87HrzXc-29" vertex="1">
          <mxGeometry width="180" height="40" as="geometry">
            <mxRectangle width="180" height="40" as="alternateBounds" />
          </mxGeometry>
        </mxCell>
        <mxCell id="-aWM0u22Zyi-v87HrzXc-31" value="" style="shape=tableRow;horizontal=0;startSize=0;swimlaneHead=0;swimlaneBody=0;strokeColor=#FFFFFF;top=0;left=0;bottom=0;right=0;collapsible=0;dropTarget=0;fillColor=none;points=[[0,0.5],[1,0.5]];portConstraint=eastwest;rounded=0;labelBackgroundColor=none;fontColor=#FFFFFF;fontFamily=Verdana;" parent="-aWM0u22Zyi-v87HrzXc-28" vertex="1">
          <mxGeometry y="40" width="180" height="20" as="geometry" />
        </mxCell>
        <mxCell id="-aWM0u22Zyi-v87HrzXc-32" value="" style="shape=partialRectangle;html=1;whiteSpace=wrap;connectable=0;strokeColor=#FFFFFF;overflow=hidden;fillColor=none;top=0;left=0;bottom=0;right=0;pointerEvents=1;rounded=0;labelBackgroundColor=none;fontColor=#FFFFFF;fontFamily=Verdana;" parent="-aWM0u22Zyi-v87HrzXc-31" vertex="1">
          <mxGeometry width="180" height="20" as="geometry">
            <mxRectangle width="180" height="20" as="alternateBounds" />
          </mxGeometry>
        </mxCell>
        <mxCell id="-aWM0u22Zyi-v87HrzXc-33" value="" style="shape=tableRow;horizontal=0;startSize=0;swimlaneHead=0;swimlaneBody=0;strokeColor=#FFFFFF;top=0;left=0;bottom=0;right=0;collapsible=0;dropTarget=0;fillColor=none;points=[[0,0.5],[1,0.5]];portConstraint=eastwest;rounded=0;labelBackgroundColor=none;fontColor=#FFFFFF;fontFamily=Verdana;" parent="-aWM0u22Zyi-v87HrzXc-28" vertex="1">
          <mxGeometry y="60" width="180" height="40" as="geometry" />
        </mxCell>
        <mxCell id="-aWM0u22Zyi-v87HrzXc-34" value="&lt;span style=&quot;text-align: left;&quot;&gt;+ WriteMessage(string): string&lt;/span&gt;" style="shape=partialRectangle;html=1;whiteSpace=wrap;connectable=0;strokeColor=#FFFFFF;overflow=hidden;fillColor=none;top=0;left=0;bottom=0;right=0;pointerEvents=1;rounded=0;labelBackgroundColor=none;fontColor=#FFFFFF;fontFamily=Verdana;" parent="-aWM0u22Zyi-v87HrzXc-33" vertex="1">
          <mxGeometry width="180" height="40" as="geometry">
            <mxRectangle width="180" height="40" as="alternateBounds" />
          </mxGeometry>
        </mxCell>
        <mxCell id="-aWM0u22Zyi-v87HrzXc-38" value="" style="endArrow=block;html=1;rounded=0;fontSize=12;startSize=8;endSize=8;endFill=0;edgeStyle=orthogonalEdgeStyle;labelBackgroundColor=none;strokeColor=#FFFFFF;fontColor=default;fontFamily=Verdana;entryX=0.456;entryY=1.012;entryDx=0;entryDy=0;entryPerimeter=0;" parent="1" edge="1" target="AwSr70IUavVS25KB8NRR-15">
          <mxGeometry width="50" height="50" relative="1" as="geometry">
            <mxPoint x="660" y="511" as="sourcePoint" />
            <mxPoint x="930" y="447" as="targetPoint" />
            <Array as="points">
              <mxPoint x="660" y="500" />
              <mxPoint x="801" y="500" />
              <mxPoint x="801" y="447" />
              <mxPoint x="801" y="447" />
            </Array>
          </mxGeometry>
        </mxCell>
        <mxCell id="-aWM0u22Zyi-v87HrzXc-44" value="" style="endArrow=none;html=1;rounded=0;fontSize=12;startSize=8;endSize=8;curved=1;labelBackgroundColor=none;strokeColor=#FFFFFF;fontColor=default;fontFamily=Verdana;" parent="1" edge="1">
          <mxGeometry width="50" height="50" relative="1" as="geometry">
            <mxPoint x="660" y="530" as="sourcePoint" />
            <mxPoint x="660" y="500" as="targetPoint" />
          </mxGeometry>
        </mxCell>
        <mxCell id="-aWM0u22Zyi-v87HrzXc-45" value="" style="endArrow=none;html=1;rounded=0;fontSize=12;startSize=8;endSize=8;curved=1;exitX=0.497;exitY=-0.003;exitDx=0;exitDy=0;labelBackgroundColor=none;strokeColor=#FFFFFF;fontColor=default;fontFamily=Verdana;exitPerimeter=0;" parent="1" source="-aWM0u22Zyi-v87HrzXc-9" edge="1">
          <mxGeometry width="50" height="50" relative="1" as="geometry">
            <mxPoint x="890" y="580" as="sourcePoint" />
            <mxPoint x="930" y="500" as="targetPoint" />
          </mxGeometry>
        </mxCell>
        <mxCell id="-aWM0u22Zyi-v87HrzXc-46" value="" style="endArrow=block;dashed=1;endFill=0;endSize=8;html=1;rounded=0;fontSize=12;curved=1;exitX=1;exitY=0.5;exitDx=0;exitDy=0;labelBackgroundColor=none;strokeColor=#FFFFFF;fontColor=default;fontFamily=Verdana;entryX=-0.007;entryY=0.68;entryDx=0;entryDy=0;entryPerimeter=0;" parent="1" source="-aWM0u22Zyi-v87HrzXc-31" edge="1" target="-aWM0u22Zyi-v87HrzXc-2">
          <mxGeometry width="160" relative="1" as="geometry">
            <mxPoint x="560" y="320" as="sourcePoint" />
            <mxPoint x="701" y="320" as="targetPoint" />
          </mxGeometry>
        </mxCell>
        <mxCell id="-aWM0u22Zyi-v87HrzXc-48" value="" style="endArrow=none;html=1;rounded=0;fontSize=12;startSize=8;endSize=14;endFill=0;strokeWidth=1;labelBackgroundColor=none;strokeColor=#FFFFFF;fontColor=default;fontFamily=Verdana;" parent="1" edge="1">
          <mxGeometry relative="1" as="geometry">
            <mxPoint x="420" y="624" as="sourcePoint" />
            <mxPoint x="570" y="624" as="targetPoint" />
          </mxGeometry>
        </mxCell>
        <mxCell id="-aWM0u22Zyi-v87HrzXc-54" value="" style="endArrow=open;html=1;edgeStyle=orthogonalEdgeStyle;rounded=0;fontSize=12;startSize=8;endSize=8;elbow=vertical;startArrow=none;startFill=0;endFill=0;labelBackgroundColor=none;strokeColor=#FFFFFF;fontColor=default;fontFamily=Verdana;" parent="1" edge="1">
          <mxGeometry relative="1" as="geometry">
            <mxPoint x="927" y="700" as="sourcePoint" />
            <mxPoint x="1474" y="679" as="targetPoint" />
            <Array as="points">
              <mxPoint x="927.17" y="753.92" />
              <mxPoint x="1474.17" y="753.92" />
            </Array>
          </mxGeometry>
        </mxCell>
        <mxCell id="-aWM0u22Zyi-v87HrzXc-55" value="0...N" style="edgeLabel;resizable=0;html=1;align=left;verticalAlign=bottom;fontSize=15;rounded=0;labelBackgroundColor=none;fontColor=#FFFFFF;fontFamily=Verdana;" parent="-aWM0u22Zyi-v87HrzXc-54" connectable="0" vertex="1">
          <mxGeometry x="-1" relative="1" as="geometry">
            <mxPoint x="9" y="48" as="offset" />
          </mxGeometry>
        </mxCell>
        <mxCell id="-aWM0u22Zyi-v87HrzXc-60" value="1" style="text;html=1;align=center;verticalAlign=middle;resizable=0;points=[];autosize=1;strokeColor=none;fillColor=none;fontSize=15;flipH=1;rounded=0;labelBackgroundColor=none;fontColor=#FFFFFF;fontFamily=Verdana;" parent="1" vertex="1">
          <mxGeometry x="1499" y="687" width="28" height="30" as="geometry" />
        </mxCell>
        <mxCell id="-aWM0u22Zyi-v87HrzXc-61" value="" style="endArrow=diamond;endFill=0;endSize=14;html=1;rounded=0;fontSize=12;edgeStyle=orthogonalEdgeStyle;exitX=0.491;exitY=1.002;exitDx=0;exitDy=0;exitPerimeter=0;entryX=0.5;entryY=0;entryDx=0;entryDy=0;labelBackgroundColor=none;strokeColor=#FFFFFF;fontColor=default;fontFamily=Verdana;" parent="1" source="-aWM0u22Zyi-v87HrzXc-8" target="-aWM0u22Zyi-v87HrzXc-19" edge="1">
          <mxGeometry width="160" relative="1" as="geometry">
            <mxPoint x="630" y="835" as="sourcePoint" />
            <mxPoint x="790" y="835" as="targetPoint" />
            <Array as="points">
              <mxPoint x="658" y="815" />
              <mxPoint x="940" y="815" />
            </Array>
          </mxGeometry>
        </mxCell>
        <mxCell id="-aWM0u22Zyi-v87HrzXc-65" value="1" style="edgeLabel;resizable=0;html=1;align=left;verticalAlign=bottom;fontSize=15;rounded=0;labelBackgroundColor=none;fontColor=#FFFFFF;fontFamily=Verdana;" parent="1" connectable="0" vertex="1">
          <mxGeometry x="910.0000000000001" y="845" as="geometry" />
        </mxCell>
        <mxCell id="-aWM0u22Zyi-v87HrzXc-66" value="0...N" style="edgeLabel;resizable=0;html=1;align=left;verticalAlign=bottom;fontSize=15;rounded=0;labelBackgroundColor=none;fontColor=#FFFFFF;fontFamily=Verdana;" parent="1" connectable="0" vertex="1">
          <mxGeometry x="660.0000000000001" y="845" as="geometry" />
        </mxCell>
        <mxCell id="-aWM0u22Zyi-v87HrzXc-67" value="" style="endArrow=diamond;endFill=1;endSize=14;html=1;rounded=0;fontSize=12;edgeStyle=orthogonalEdgeStyle;labelBackgroundColor=none;strokeColor=#FFFFFF;fontColor=default;fontFamily=Verdana;" parent="1" edge="1">
          <mxGeometry width="160" relative="1" as="geometry">
            <mxPoint x="1080" y="968" as="sourcePoint" />
            <mxPoint x="1485" y="687" as="targetPoint" />
            <Array as="points">
              <mxPoint x="1082" y="968" />
              <mxPoint x="1493" y="968" />
              <mxPoint x="1493" y="681" />
            </Array>
          </mxGeometry>
        </mxCell>
        <mxCell id="-aWM0u22Zyi-v87HrzXc-69" value="1" style="edgeLabel;resizable=0;html=1;align=left;verticalAlign=bottom;fontSize=15;rounded=0;labelBackgroundColor=none;fontColor=#FFFFFF;fontFamily=Verdana;" parent="1" connectable="0" vertex="1">
          <mxGeometry x="1091" y="994" as="geometry" />
        </mxCell>
        <mxCell id="-aWM0u22Zyi-v87HrzXc-70" value="1" style="edgeLabel;resizable=0;html=1;align=left;verticalAlign=bottom;fontSize=15;rounded=0;labelBackgroundColor=none;fontColor=#FFFFFF;fontFamily=Verdana;" parent="1" connectable="0" vertex="1">
          <mxGeometry x="1435" y="717" as="geometry">
            <mxPoint x="2" y="27" as="offset" />
          </mxGeometry>
        </mxCell>
        <mxCell id="AwSr70IUavVS25KB8NRR-4" value="Scooter" style="swimlane;fontStyle=1;align=center;verticalAlign=top;childLayout=stackLayout;horizontal=1;startSize=26;horizontalStack=0;resizeParent=1;resizeParentMax=0;resizeLast=0;collapsible=1;marginBottom=0;whiteSpace=wrap;html=1;rounded=0;labelBackgroundColor=none;fillColor=#182E3E;strokeColor=#FFFFFF;fontColor=#FFFFFF;fontFamily=Verdana;" vertex="1" parent="1">
          <mxGeometry x="1100" y="535.5" width="201" height="67" as="geometry" />
        </mxCell>
        <mxCell id="AwSr70IUavVS25KB8NRR-6" value="" style="line;strokeWidth=1;fillColor=none;align=left;verticalAlign=middle;spacingTop=-1;spacingLeft=3;spacingRight=3;rotatable=0;labelPosition=right;points=[];portConstraint=eastwest;strokeColor=#FFFFFF;rounded=0;labelBackgroundColor=none;fontColor=#FFFFFF;fontFamily=Verdana;" vertex="1" parent="AwSr70IUavVS25KB8NRR-4">
          <mxGeometry y="26" width="201" height="8" as="geometry" />
        </mxCell>
        <mxCell id="AwSr70IUavVS25KB8NRR-7" value="&lt;div&gt;&lt;br&gt;&lt;/div&gt;" style="text;strokeColor=none;fillColor=none;align=left;verticalAlign=top;spacingLeft=4;spacingRight=4;overflow=hidden;rotatable=0;points=[[0,0.5],[1,0.5]];portConstraint=eastwest;whiteSpace=wrap;html=1;rounded=0;labelBackgroundColor=none;fontColor=#FFFFFF;fontFamily=Verdana;" vertex="1" parent="AwSr70IUavVS25KB8NRR-4">
          <mxGeometry y="34" width="201" height="33" as="geometry" />
        </mxCell>
        <mxCell id="AwSr70IUavVS25KB8NRR-9" value="" style="endArrow=block;dashed=1;endFill=0;endSize=8;html=1;rounded=0;fontSize=12;labelBackgroundColor=none;strokeColor=#FFFFFF;fontColor=default;fontFamily=Verdana;edgeStyle=orthogonalEdgeStyle;" edge="1" parent="1">
          <mxGeometry width="160" relative="1" as="geometry">
            <mxPoint x="414" y="113" as="sourcePoint" />
            <mxPoint x="397" y="564" as="targetPoint" />
            <Array as="points">
              <mxPoint x="397" y="113" />
              <mxPoint x="397" y="236" />
            </Array>
          </mxGeometry>
        </mxCell>
        <mxCell id="AwSr70IUavVS25KB8NRR-12" value="WithPlateVehicle" style="swimlane;fontStyle=1;align=center;verticalAlign=top;childLayout=stackLayout;horizontal=1;startSize=26;horizontalStack=0;resizeParent=1;resizeParentMax=0;resizeLast=0;collapsible=1;marginBottom=0;whiteSpace=wrap;html=1;rounded=0;labelBackgroundColor=none;fillColor=#182E3E;strokeColor=#FFFFFF;fontColor=#FFFFFF;fontFamily=Verdana;" vertex="1" parent="1">
          <mxGeometry x="709" y="298" width="201" height="138" as="geometry" />
        </mxCell>
        <mxCell id="AwSr70IUavVS25KB8NRR-13" value="+ plate: const string&lt;div&gt;&lt;br&gt;&lt;/div&gt;" style="text;strokeColor=none;fillColor=none;align=left;verticalAlign=top;spacingLeft=4;spacingRight=4;overflow=hidden;rotatable=0;points=[[0,0.5],[1,0.5]];portConstraint=eastwest;whiteSpace=wrap;html=1;rounded=0;labelBackgroundColor=none;fontColor=#FFFFFF;fontFamily=Verdana;" vertex="1" parent="AwSr70IUavVS25KB8NRR-12">
          <mxGeometry y="26" width="201" height="54" as="geometry" />
        </mxCell>
        <mxCell id="AwSr70IUavVS25KB8NRR-14" value="" style="line;strokeWidth=1;fillColor=none;align=left;verticalAlign=middle;spacingTop=-1;spacingLeft=3;spacingRight=3;rotatable=0;labelPosition=right;points=[];portConstraint=eastwest;strokeColor=#FFFFFF;rounded=0;labelBackgroundColor=none;fontColor=#FFFFFF;fontFamily=Verdana;" vertex="1" parent="AwSr70IUavVS25KB8NRR-12">
          <mxGeometry y="80" width="201" height="8" as="geometry" />
        </mxCell>
        <mxCell id="AwSr70IUavVS25KB8NRR-15" value="+ GetPlate(): string&lt;div&gt;+ ToString(): string&lt;/div&gt;&lt;div&gt;&lt;br&gt;&lt;/div&gt;" style="text;strokeColor=none;fillColor=none;align=left;verticalAlign=top;spacingLeft=4;spacingRight=4;overflow=hidden;rotatable=0;points=[[0,0.5],[1,0.5]];portConstraint=eastwest;whiteSpace=wrap;html=1;rounded=0;labelBackgroundColor=none;fontColor=#FFFFFF;fontFamily=Verdana;" vertex="1" parent="AwSr70IUavVS25KB8NRR-12">
          <mxGeometry y="88" width="201" height="50" as="geometry" />
        </mxCell>
        <mxCell id="AwSr70IUavVS25KB8NRR-16" value="NoPlateVehicle" style="swimlane;fontStyle=1;align=center;verticalAlign=top;childLayout=stackLayout;horizontal=1;startSize=26;horizontalStack=0;resizeParent=1;resizeParentMax=0;resizeLast=0;collapsible=1;marginBottom=0;whiteSpace=wrap;html=1;rounded=0;labelBackgroundColor=none;fillColor=#182E3E;strokeColor=#FFFFFF;fontColor=#FFFFFF;fontFamily=Verdana;" vertex="1" parent="1">
          <mxGeometry x="1016" y="298" width="201" height="138" as="geometry" />
        </mxCell>
        <mxCell id="AwSr70IUavVS25KB8NRR-17" value="&lt;div&gt;&lt;br&gt;&lt;/div&gt;" style="text;strokeColor=none;fillColor=none;align=left;verticalAlign=top;spacingLeft=4;spacingRight=4;overflow=hidden;rotatable=0;points=[[0,0.5],[1,0.5]];portConstraint=eastwest;whiteSpace=wrap;html=1;rounded=0;labelBackgroundColor=none;fontColor=#FFFFFF;fontFamily=Verdana;" vertex="1" parent="AwSr70IUavVS25KB8NRR-16">
          <mxGeometry y="26" width="201" height="54" as="geometry" />
        </mxCell>
        <mxCell id="AwSr70IUavVS25KB8NRR-18" value="" style="line;strokeWidth=1;fillColor=none;align=left;verticalAlign=middle;spacingTop=-1;spacingLeft=3;spacingRight=3;rotatable=0;labelPosition=right;points=[];portConstraint=eastwest;strokeColor=#FFFFFF;rounded=0;labelBackgroundColor=none;fontColor=#FFFFFF;fontFamily=Verdana;" vertex="1" parent="AwSr70IUavVS25KB8NRR-16">
          <mxGeometry y="80" width="201" height="8" as="geometry" />
        </mxCell>
        <mxCell id="AwSr70IUavVS25KB8NRR-19" value="&lt;div&gt;+ ToString(): string&lt;/div&gt;&lt;div&gt;&lt;br&gt;&lt;/div&gt;" style="text;strokeColor=none;fillColor=none;align=left;verticalAlign=top;spacingLeft=4;spacingRight=4;overflow=hidden;rotatable=0;points=[[0,0.5],[1,0.5]];portConstraint=eastwest;whiteSpace=wrap;html=1;rounded=0;labelBackgroundColor=none;fontColor=#FFFFFF;fontFamily=Verdana;" vertex="1" parent="AwSr70IUavVS25KB8NRR-16">
          <mxGeometry y="88" width="201" height="50" as="geometry" />
        </mxCell>
        <mxCell id="AwSr70IUavVS25KB8NRR-20" value="" style="endArrow=none;html=1;rounded=0;strokeColor=#FFFFFF;" edge="1" parent="1">
          <mxGeometry width="50" height="50" relative="1" as="geometry">
            <mxPoint x="801" y="500" as="sourcePoint" />
            <mxPoint x="930" y="500" as="targetPoint" />
          </mxGeometry>
        </mxCell>
        <mxCell id="AwSr70IUavVS25KB8NRR-21" value="" style="endArrow=block;html=1;rounded=0;endFill=0;strokeColor=#FFFFFF;edgeStyle=orthogonalEdgeStyle;" edge="1" parent="1">
          <mxGeometry width="50" height="50" relative="1" as="geometry">
            <mxPoint x="1201" y="534" as="sourcePoint" />
            <mxPoint x="1114" y="436" as="targetPoint" />
            <Array as="points">
              <mxPoint x="1202" y="487" />
              <mxPoint x="1114" y="487" />
              <mxPoint x="1114" y="443" />
            </Array>
          </mxGeometry>
        </mxCell>
        <mxCell id="AwSr70IUavVS25KB8NRR-29" value="&amp;lt;&amp;lt;abstract&amp;gt;&amp;gt;&lt;div&gt;MeasuringInstrument&lt;/div&gt;" style="swimlane;fontStyle=1;align=center;verticalAlign=top;childLayout=stackLayout;horizontal=1;startSize=40;horizontalStack=0;resizeParent=1;resizeParentMax=0;resizeLast=0;collapsible=1;marginBottom=0;whiteSpace=wrap;html=1;rounded=0;labelBackgroundColor=none;fillColor=#182E3E;strokeColor=#FFFFFF;fontColor=#FFFFFF;fontFamily=Verdana;" vertex="1" parent="1">
          <mxGeometry x="130" y="236" width="210" height="140" as="geometry" />
        </mxCell>
        <mxCell id="AwSr70IUavVS25KB8NRR-30" value="&lt;div&gt;- plate: string&lt;/div&gt;&lt;div&gt;- TypeOfInstrument: string&lt;/div&gt;" style="text;strokeColor=none;fillColor=none;align=left;verticalAlign=top;spacingLeft=4;spacingRight=4;overflow=hidden;rotatable=0;points=[[0,0.5],[1,0.5]];portConstraint=eastwest;whiteSpace=wrap;html=1;rounded=0;labelBackgroundColor=none;fontColor=#FFFFFF;fontFamily=Verdana;" vertex="1" parent="AwSr70IUavVS25KB8NRR-29">
          <mxGeometry y="40" width="210" height="54" as="geometry" />
        </mxCell>
        <mxCell id="AwSr70IUavVS25KB8NRR-31" value="" style="line;strokeWidth=1;fillColor=none;align=left;verticalAlign=middle;spacingTop=-1;spacingLeft=3;spacingRight=3;rotatable=0;labelPosition=right;points=[];portConstraint=eastwest;strokeColor=#FFFFFF;rounded=0;labelBackgroundColor=none;fontColor=#FFFFFF;fontFamily=Verdana;" vertex="1" parent="AwSr70IUavVS25KB8NRR-29">
          <mxGeometry y="94" width="210" height="8" as="geometry" />
        </mxCell>
        <mxCell id="AwSr70IUavVS25KB8NRR-32" value="+ GetType(): string" style="text;strokeColor=none;fillColor=none;align=left;verticalAlign=top;spacingLeft=4;spacingRight=4;overflow=hidden;rotatable=0;points=[[0,0.5],[1,0.5]];portConstraint=eastwest;whiteSpace=wrap;html=1;rounded=0;labelBackgroundColor=none;fontColor=#FFFFFF;fontFamily=Verdana;" vertex="1" parent="AwSr70IUavVS25KB8NRR-29">
          <mxGeometry y="102" width="210" height="38" as="geometry" />
        </mxCell>
        <mxCell id="AwSr70IUavVS25KB8NRR-33" value="Breathalyzer" style="swimlane;fontStyle=1;align=center;verticalAlign=top;childLayout=stackLayout;horizontal=1;startSize=26;horizontalStack=0;resizeParent=1;resizeParentMax=0;resizeLast=0;collapsible=1;marginBottom=0;whiteSpace=wrap;html=1;rounded=0;labelBackgroundColor=none;fillColor=#182E3E;strokeColor=#FFFFFF;fontColor=#FFFFFF;fontFamily=Verdana;" vertex="1" parent="1">
          <mxGeometry x="-82" y="566" width="220" height="197" as="geometry" />
        </mxCell>
        <mxCell id="AwSr70IUavVS25KB8NRR-34" value="- maxLevel: float&lt;div&gt;+ MeasureHistory: List&amp;lt;float&amp;gt;&lt;/div&gt;" style="text;strokeColor=none;fillColor=none;align=left;verticalAlign=top;spacingLeft=4;spacingRight=4;overflow=hidden;rotatable=0;points=[[0,0.5],[1,0.5]];portConstraint=eastwest;whiteSpace=wrap;html=1;rounded=0;labelBackgroundColor=none;fontColor=#FFFFFF;fontFamily=Verdana;" vertex="1" parent="AwSr70IUavVS25KB8NRR-33">
          <mxGeometry y="26" width="220" height="64" as="geometry" />
        </mxCell>
        <mxCell id="AwSr70IUavVS25KB8NRR-35" value="" style="line;strokeWidth=1;fillColor=none;align=left;verticalAlign=middle;spacingTop=-1;spacingLeft=3;spacingRight=3;rotatable=0;labelPosition=right;points=[];portConstraint=eastwest;strokeColor=#FFFFFF;rounded=0;labelBackgroundColor=none;fontColor=#FFFFFF;fontFamily=Verdana;" vertex="1" parent="AwSr70IUavVS25KB8NRR-33">
          <mxGeometry y="90" width="220" height="8" as="geometry" />
        </mxCell>
        <mxCell id="AwSr70IUavVS25KB8NRR-36" value="+ Measure(Vehicle): void&lt;div&gt;+ GetLastMeasurement(): string&lt;/div&gt;&lt;div&gt;+ WriteMessage(string): string&lt;/div&gt;" style="text;strokeColor=none;fillColor=none;align=left;verticalAlign=top;spacingLeft=4;spacingRight=4;overflow=hidden;rotatable=0;points=[[0,0.5],[1,0.5]];portConstraint=eastwest;whiteSpace=wrap;html=1;rounded=0;labelBackgroundColor=none;fontColor=#FFFFFF;fontFamily=Verdana;" vertex="1" parent="AwSr70IUavVS25KB8NRR-33">
          <mxGeometry y="98" width="220" height="99" as="geometry" />
        </mxCell>
        <mxCell id="AwSr70IUavVS25KB8NRR-37" value="" style="endArrow=block;html=1;rounded=0;strokeColor=#FFFFFF;endFill=0;edgeStyle=orthogonalEdgeStyle;entryX=0.572;entryY=1.022;entryDx=0;entryDy=0;entryPerimeter=0;exitX=0.369;exitY=-0.001;exitDx=0;exitDy=0;exitPerimeter=0;" edge="1" parent="1" source="AwSr70IUavVS25KB8NRR-33">
          <mxGeometry width="50" height="50" relative="1" as="geometry">
            <mxPoint y="564.16" as="sourcePoint" />
            <mxPoint x="226.12000000000012" y="375.99600000000004" as="targetPoint" />
            <Array as="points">
              <mxPoint x="-1" y="475" />
              <mxPoint x="226" y="475" />
            </Array>
          </mxGeometry>
        </mxCell>
        <mxCell id="AwSr70IUavVS25KB8NRR-38" value="" style="endArrow=none;html=1;rounded=0;strokeColor=#FFFFFF;edgeStyle=orthogonalEdgeStyle;entryX=0.415;entryY=0.001;entryDx=0;entryDy=0;entryPerimeter=0;" edge="1" parent="1" target="-aWM0u22Zyi-v87HrzXc-13">
          <mxGeometry width="50" height="50" relative="1" as="geometry">
            <mxPoint x="226" y="475" as="sourcePoint" />
            <mxPoint x="264" y="468" as="targetPoint" />
            <Array as="points">
              <mxPoint x="291" y="475" />
            </Array>
          </mxGeometry>
        </mxCell>
        <mxCell id="AwSr70IUavVS25KB8NRR-39" value="" style="endArrow=none;html=1;rounded=0;strokeColor=#FFFFFF;edgeStyle=orthogonalEdgeStyle;exitX=0;exitY=0.76;exitDx=0;exitDy=0;exitPerimeter=0;" edge="1" parent="1" source="-aWM0u22Zyi-v87HrzXc-8">
          <mxGeometry width="50" height="50" relative="1" as="geometry">
            <mxPoint x="506" y="831" as="sourcePoint" />
            <mxPoint x="81" y="763" as="targetPoint" />
            <Array as="points">
              <mxPoint x="515" y="751" />
              <mxPoint x="515" y="792" />
              <mxPoint x="64" y="792" />
              <mxPoint x="64" y="763" />
            </Array>
          </mxGeometry>
        </mxCell>
        <mxCell id="AwSr70IUavVS25KB8NRR-41" value="" style="endArrow=block;html=1;rounded=0;fontSize=12;startSize=8;endSize=8;endFill=0;edgeStyle=orthogonalEdgeStyle;labelBackgroundColor=none;strokeColor=#FFFFFF;fontColor=default;fontFamily=Verdana;exitX=0.771;exitY=-0.001;exitDx=0;exitDy=0;exitPerimeter=0;entryX=0.557;entryY=1.012;entryDx=0;entryDy=0;entryPerimeter=0;" edge="1" parent="1" source="AwSr70IUavVS25KB8NRR-12" target="-aWM0u22Zyi-v87HrzXc-4">
          <mxGeometry width="50" height="50" relative="1" as="geometry">
            <mxPoint x="864" y="297" as="sourcePoint" />
            <mxPoint x="987" y="249" as="targetPoint" />
            <Array as="points">
              <mxPoint x="864" y="267" />
              <mxPoint x="987" y="267" />
            </Array>
          </mxGeometry>
        </mxCell>
        <mxCell id="AwSr70IUavVS25KB8NRR-42" value="" style="endArrow=none;html=1;rounded=0;strokeColor=#FFFFFF;" edge="1" parent="1">
          <mxGeometry width="50" height="50" relative="1" as="geometry">
            <mxPoint x="987" y="267" as="sourcePoint" />
            <mxPoint x="1116" y="267" as="targetPoint" />
          </mxGeometry>
        </mxCell>
        <mxCell id="AwSr70IUavVS25KB8NRR-43" value="" style="endArrow=none;html=1;rounded=0;fontSize=12;startSize=8;endSize=8;curved=1;exitX=0.497;exitY=-0.003;exitDx=0;exitDy=0;labelBackgroundColor=none;strokeColor=#FFFFFF;fontColor=default;fontFamily=Verdana;exitPerimeter=0;" edge="1" parent="1">
          <mxGeometry width="50" height="50" relative="1" as="geometry">
            <mxPoint x="1116" y="296" as="sourcePoint" />
            <mxPoint x="1116" y="267" as="targetPoint" />
          </mxGeometry>
        </mxCell>
        <mxCell id="AwSr70IUavVS25KB8NRR-44" value="" style="endArrow=block;dashed=1;endFill=0;endSize=8;html=1;rounded=0;fontSize=12;labelBackgroundColor=none;strokeColor=#FFFFFF;fontColor=default;fontFamily=Verdana;edgeStyle=orthogonalEdgeStyle;entryX=-0.002;entryY=0.208;entryDx=0;entryDy=0;entryPerimeter=0;" edge="1" parent="1" target="-aWM0u22Zyi-v87HrzXc-22">
          <mxGeometry width="160" relative="1" as="geometry">
            <mxPoint x="474" y="166" as="sourcePoint" />
            <mxPoint x="791" y="986" as="targetPoint" />
            <Array as="points">
              <mxPoint x="474" y="191" />
              <mxPoint x="473" y="191" />
              <mxPoint x="473" y="948" />
              <mxPoint x="762" y="948" />
              <mxPoint x="762" y="986" />
            </Array>
          </mxGeometry>
        </mxCell>
        <mxCell id="AwSr70IUavVS25KB8NRR-45" value="" style="endArrow=block;html=1;rounded=0;dashed=1;strokeColor=#FFFFFF;endFill=0;edgeStyle=orthogonalEdgeStyle;entryX=0.733;entryY=1.028;entryDx=0;entryDy=0;entryPerimeter=0;" edge="1" parent="1" target="-aWM0u22Zyi-v87HrzXc-26">
          <mxGeometry width="50" height="50" relative="1" as="geometry">
            <mxPoint x="472" y="948" as="sourcePoint" />
            <mxPoint x="1534.857142857143" y="1123" as="targetPoint" />
            <Array as="points">
              <mxPoint x="468" y="948" />
              <mxPoint x="468" y="1128" />
              <mxPoint x="578" y="1128" />
              <mxPoint x="578" y="1118" />
              <mxPoint x="1551" y="1118" />
            </Array>
          </mxGeometry>
        </mxCell>
      </root>
    </mxGraphModel>
  </diagram>
</mxfile>
